<mxfile host="65bd71144e">
    <diagram id="szAuExEihpR_oLBRPBaR" name="Página-1">
        <mxGraphModel dx="1955" dy="1940" grid="1" gridSize="10" guides="1" tooltips="1" connect="1" arrows="1" fold="1" page="1" pageScale="1" pageWidth="827" pageHeight="1169" math="0" shadow="0">
            <root>
                <mxCell id="0"/>
                <mxCell id="1" parent="0"/>
                <mxCell id="41" style="edgeStyle=none;html=1;exitX=0.25;exitY=1;exitDx=0;exitDy=0;" parent="1" source="2" target="45" edge="1">
                    <mxGeometry relative="1" as="geometry">
                        <mxPoint x="100" y="330" as="targetPoint"/>
                    </mxGeometry>
                </mxCell>
                <mxCell id="46" style="edgeStyle=none;html=1;entryX=0.67;entryY=0.032;entryDx=0;entryDy=0;entryPerimeter=0;" parent="1" source="2" target="47" edge="1">
                    <mxGeometry relative="1" as="geometry">
                        <mxPoint x="149.99999999999977" y="360.0000000000002" as="targetPoint"/>
                    </mxGeometry>
                </mxCell>
                <mxCell id="50" style="edgeStyle=none;html=1;exitX=0.555;exitY=1.033;exitDx=0;exitDy=0;exitPerimeter=0;" parent="1" source="2" target="48" edge="1">
                    <mxGeometry relative="1" as="geometry"/>
                </mxCell>
                <mxCell id="62" style="edgeStyle=none;html=1;exitX=0.873;exitY=1.019;exitDx=0;exitDy=0;exitPerimeter=0;" parent="1" source="2" target="61" edge="1">
                    <mxGeometry relative="1" as="geometry"/>
                </mxCell>
                <mxCell id="105" style="edgeStyle=none;html=1;exitX=0;exitY=0.25;exitDx=0;exitDy=0;entryX=0.977;entryY=0.675;entryDx=0;entryDy=0;entryPerimeter=0;" parent="1" source="2" target="104" edge="1">
                    <mxGeometry relative="1" as="geometry"/>
                </mxCell>
                <mxCell id="2" value="&lt;font style=&quot;font-size: 18px&quot;&gt;Cliente&lt;/font&gt;" style="rounded=0;whiteSpace=wrap;html=1;" parent="1" vertex="1">
                    <mxGeometry x="120" y="200" width="120" height="60" as="geometry"/>
                </mxCell>
                <mxCell id="4" value="" style="endArrow=none;html=1;exitX=1;exitY=0.5;exitDx=0;exitDy=0;" parent="1" source="2" edge="1">
                    <mxGeometry width="50" height="50" relative="1" as="geometry">
                        <mxPoint x="470" y="330" as="sourcePoint"/>
                        <mxPoint x="340" y="230" as="targetPoint"/>
                    </mxGeometry>
                </mxCell>
                <mxCell id="5" value="N" style="text;html=1;align=center;verticalAlign=middle;resizable=0;points=[];autosize=1;strokeColor=none;fillColor=none;" parent="1" vertex="1">
                    <mxGeometry x="240" y="215" width="20" height="20" as="geometry"/>
                </mxCell>
                <mxCell id="66" style="edgeStyle=none;html=1;exitX=0.25;exitY=0;exitDx=0;exitDy=0;entryX=0.587;entryY=1.01;entryDx=0;entryDy=0;entryPerimeter=0;" parent="1" source="7" target="68" edge="1">
                    <mxGeometry relative="1" as="geometry">
                        <mxPoint x="499.9999999999998" y="140.00000000000023" as="targetPoint"/>
                    </mxGeometry>
                </mxCell>
                <mxCell id="70" style="edgeStyle=none;html=1;exitX=0.5;exitY=0;exitDx=0;exitDy=0;entryX=0.5;entryY=1;entryDx=0;entryDy=0;" parent="1" source="7" target="69" edge="1">
                    <mxGeometry relative="1" as="geometry"/>
                </mxCell>
                <mxCell id="126" style="edgeStyle=none;html=1;exitX=1;exitY=0;exitDx=0;exitDy=0;entryX=0;entryY=1;entryDx=0;entryDy=0;" parent="1" source="7" target="127" edge="1">
                    <mxGeometry relative="1" as="geometry">
                        <mxPoint x="680" y="100" as="targetPoint"/>
                    </mxGeometry>
                </mxCell>
                <mxCell id="134" style="edgeStyle=none;html=1;exitX=0.75;exitY=0;exitDx=0;exitDy=0;entryX=0.405;entryY=0.971;entryDx=0;entryDy=0;entryPerimeter=0;" parent="1" source="7" target="135" edge="1">
                    <mxGeometry relative="1" as="geometry">
                        <mxPoint x="640" y="70" as="targetPoint"/>
                    </mxGeometry>
                </mxCell>
                <mxCell id="184" style="edgeStyle=none;html=1;exitX=1;exitY=0.25;exitDx=0;exitDy=0;entryX=0.043;entryY=0.785;entryDx=0;entryDy=0;entryPerimeter=0;" parent="1" source="7" target="185" edge="1">
                    <mxGeometry relative="1" as="geometry">
                        <mxPoint x="710" y="150" as="targetPoint"/>
                    </mxGeometry>
                </mxCell>
                <mxCell id="7" value="&lt;font size=&quot;3&quot;&gt;Recepcionista&lt;/font&gt;" style="rounded=0;whiteSpace=wrap;html=1;" parent="1" vertex="1">
                    <mxGeometry x="500" y="200" width="120" height="60" as="geometry"/>
                </mxCell>
                <mxCell id="8" value="" style="endArrow=none;html=1;" parent="1" target="7" edge="1">
                    <mxGeometry width="50" height="50" relative="1" as="geometry">
                        <mxPoint x="410" y="230" as="sourcePoint"/>
                        <mxPoint x="520" y="280" as="targetPoint"/>
                    </mxGeometry>
                </mxCell>
                <mxCell id="39" value="" style="endArrow=classic;html=1;exitX=0;exitY=0.75;exitDx=0;exitDy=0;entryX=1;entryY=0;entryDx=0;entryDy=0;" parent="1" source="2" target="43" edge="1">
                    <mxGeometry width="50" height="50" relative="1" as="geometry">
                        <mxPoint x="100" y="360" as="sourcePoint"/>
                        <mxPoint x="60" y="300" as="targetPoint"/>
                    </mxGeometry>
                </mxCell>
                <mxCell id="43" value="Nombre" style="ellipse;whiteSpace=wrap;html=1;" parent="1" vertex="1">
                    <mxGeometry x="-50" y="180" width="80" height="40" as="geometry"/>
                </mxCell>
                <mxCell id="45" value="Número de&lt;br&gt;cliente" style="ellipse;whiteSpace=wrap;html=1;" parent="1" vertex="1">
                    <mxGeometry x="-80" y="250" width="80" height="40" as="geometry"/>
                </mxCell>
                <mxCell id="47" value="Apellido" style="ellipse;whiteSpace=wrap;html=1;" parent="1" vertex="1">
                    <mxGeometry x="-35" y="320" width="80" height="40" as="geometry"/>
                </mxCell>
                <mxCell id="48" value="Mail" style="ellipse;whiteSpace=wrap;html=1;" parent="1" vertex="1">
                    <mxGeometry x="70" y="330" width="80" height="40" as="geometry"/>
                </mxCell>
                <mxCell id="61" value="Telefono" style="ellipse;whiteSpace=wrap;html=1;" parent="1" vertex="1">
                    <mxGeometry x="163" y="305" width="80" height="40" as="geometry"/>
                </mxCell>
                <mxCell id="65" value="1" style="text;html=1;align=center;verticalAlign=middle;resizable=0;points=[];autosize=1;strokeColor=none;fillColor=none;" parent="1" vertex="1">
                    <mxGeometry x="480" y="210" width="20" height="20" as="geometry"/>
                </mxCell>
                <mxCell id="68" value="Nombre" style="ellipse;whiteSpace=wrap;html=1;" parent="1" vertex="1">
                    <mxGeometry x="460" y="50" width="80" height="40" as="geometry"/>
                </mxCell>
                <mxCell id="69" value="ID_Datos&lt;br&gt;envio" style="ellipse;whiteSpace=wrap;html=1;" parent="1" vertex="1">
                    <mxGeometry x="520" y="-30" width="80" height="40" as="geometry"/>
                </mxCell>
                <mxCell id="71" value="" style="endArrow=none;html=1;" parent="1" edge="1">
                    <mxGeometry width="50" height="50" relative="1" as="geometry">
                        <mxPoint x="340" y="310" as="sourcePoint"/>
                        <mxPoint x="340" y="230" as="targetPoint"/>
                    </mxGeometry>
                </mxCell>
                <mxCell id="72" value="" style="endArrow=none;html=1;" parent="1" edge="1">
                    <mxGeometry width="50" height="50" relative="1" as="geometry">
                        <mxPoint x="410" y="310" as="sourcePoint"/>
                        <mxPoint x="410" y="230" as="targetPoint"/>
                    </mxGeometry>
                </mxCell>
                <mxCell id="75" style="edgeStyle=none;html=1;exitX=0;exitY=1;exitDx=0;exitDy=0;entryX=0.354;entryY=0.044;entryDx=0;entryDy=0;entryPerimeter=0;" parent="1" source="73" target="74" edge="1">
                    <mxGeometry relative="1" as="geometry"/>
                </mxCell>
                <mxCell id="76" style="edgeStyle=none;html=1;entryX=0;entryY=0;entryDx=0;entryDy=0;exitX=0.599;exitY=0.994;exitDx=0;exitDy=0;exitPerimeter=0;" parent="1" source="73" target="77" edge="1">
                    <mxGeometry relative="1" as="geometry">
                        <mxPoint x="409.9999999999998" y="420" as="targetPoint"/>
                        <mxPoint x="382" y="360" as="sourcePoint"/>
                    </mxGeometry>
                </mxCell>
                <mxCell id="79" style="edgeStyle=none;html=1;exitX=0.75;exitY=1;exitDx=0;exitDy=0;entryX=0.08;entryY=0.217;entryDx=0;entryDy=0;entryPerimeter=0;" parent="1" source="73" target="78" edge="1">
                    <mxGeometry relative="1" as="geometry"/>
                </mxCell>
                <mxCell id="81" style="edgeStyle=none;html=1;exitX=1;exitY=0.5;exitDx=0;exitDy=0;" parent="1" source="73" target="80" edge="1">
                    <mxGeometry relative="1" as="geometry"/>
                </mxCell>
                <mxCell id="128" style="edgeStyle=none;html=1;exitX=0.5;exitY=1;exitDx=0;exitDy=0;entryX=0.5;entryY=0;entryDx=0;entryDy=0;" parent="1" source="73" target="129" edge="1">
                    <mxGeometry relative="1" as="geometry">
                        <mxPoint x="340" y="460" as="targetPoint"/>
                    </mxGeometry>
                </mxCell>
                <mxCell id="256" style="edgeStyle=none;html=1;exitX=0.25;exitY=1;exitDx=0;exitDy=0;entryX=0.5;entryY=0;entryDx=0;entryDy=0;" edge="1" parent="1" source="73" target="255">
                    <mxGeometry relative="1" as="geometry"/>
                </mxCell>
                <mxCell id="73" value="Datos-envio" style="shape=parallelogram;perimeter=parallelogramPerimeter;whiteSpace=wrap;html=1;fixedSize=1;" parent="1" vertex="1">
                    <mxGeometry x="323" y="300" width="100" height="50" as="geometry"/>
                </mxCell>
                <mxCell id="74" value="Número&amp;nbsp;&lt;br&gt;paquete" style="ellipse;whiteSpace=wrap;html=1;" parent="1" vertex="1">
                    <mxGeometry x="243" y="400" width="80" height="40" as="geometry"/>
                </mxCell>
                <mxCell id="77" value="Número de&lt;br&gt;cliente" style="ellipse;whiteSpace=wrap;html=1;" parent="1" vertex="1">
                    <mxGeometry x="443.04" y="390" width="80" height="40" as="geometry"/>
                </mxCell>
                <mxCell id="78" value="Dia recibido" style="ellipse;whiteSpace=wrap;html=1;" parent="1" vertex="1">
                    <mxGeometry x="446.04" y="340" width="80" height="40" as="geometry"/>
                </mxCell>
                <mxCell id="80" value="Destinatario" style="ellipse;whiteSpace=wrap;html=1;" parent="1" vertex="1">
                    <mxGeometry x="443.04" y="280" width="80" height="40" as="geometry"/>
                </mxCell>
                <mxCell id="100" value="" style="shape=ext;double=1;whiteSpace=wrap;html=1;aspect=fixed;" parent="1" vertex="1">
                    <mxGeometry x="-135" y="630" width="180" height="180" as="geometry"/>
                </mxCell>
                <mxCell id="101" value="" style="endArrow=none;html=1;exitX=-0.008;exitY=0.17;exitDx=0;exitDy=0;exitPerimeter=0;" parent="1" source="100" edge="1">
                    <mxGeometry width="50" height="50" relative="1" as="geometry">
                        <mxPoint x="-135" y="670" as="sourcePoint"/>
                        <mxPoint x="50" y="661" as="targetPoint"/>
                    </mxGeometry>
                </mxCell>
                <mxCell id="102" value="&lt;font style=&quot;font-size: 14px&quot;&gt;Cliente&lt;/font&gt;" style="text;html=1;align=center;verticalAlign=middle;resizable=0;points=[];autosize=1;strokeColor=none;fillColor=none;" parent="1" vertex="1">
                    <mxGeometry x="-80" y="640" width="60" height="20" as="geometry"/>
                </mxCell>
                <mxCell id="103" value="&lt;font style=&quot;font-size: 9px&quot;&gt;* Nombre: VARCHAR(50)&lt;/font&gt;" style="text;html=1;align=center;verticalAlign=middle;resizable=0;points=[];autosize=1;strokeColor=none;fillColor=none;" parent="1" vertex="1">
                    <mxGeometry x="-140" y="690" width="120" height="20" as="geometry"/>
                </mxCell>
                <mxCell id="104" value="ID" style="ellipse;whiteSpace=wrap;html=1;" parent="1" vertex="1">
                    <mxGeometry x="-30" y="120" width="80" height="40" as="geometry"/>
                </mxCell>
                <mxCell id="106" value="&lt;font style=&quot;font-size: 10px&quot;&gt;* ID: INT(10)&lt;/font&gt;" style="text;html=1;align=center;verticalAlign=middle;resizable=0;points=[];autosize=1;strokeColor=none;fillColor=none;" parent="1" vertex="1">
                    <mxGeometry x="-135" y="670" width="70" height="20" as="geometry"/>
                </mxCell>
                <mxCell id="107" value="&lt;span style=&quot;font-size: 9px&quot;&gt;* Apellido: VARCHAR(50)&lt;/span&gt;" style="text;html=1;align=center;verticalAlign=middle;resizable=0;points=[];autosize=1;strokeColor=none;fillColor=none;fontSize=10;" parent="1" vertex="1">
                    <mxGeometry x="-140" y="710" width="120" height="20" as="geometry"/>
                </mxCell>
                <mxCell id="108" value="* Telefono:VARCHAR(10)" style="text;html=1;align=center;verticalAlign=middle;resizable=0;points=[];autosize=1;strokeColor=none;fillColor=none;fontSize=10;" parent="1" vertex="1">
                    <mxGeometry x="-140" y="730" width="130" height="20" as="geometry"/>
                </mxCell>
                <mxCell id="109" value="* Número de cliente: INT(100)" style="text;html=1;align=center;verticalAlign=middle;resizable=0;points=[];autosize=1;strokeColor=none;fillColor=none;fontSize=10;" parent="1" vertex="1">
                    <mxGeometry x="-140" y="750" width="150" height="20" as="geometry"/>
                </mxCell>
                <mxCell id="168" style="edgeStyle=none;rounded=1;html=1;exitX=0.5;exitY=1;exitDx=0;exitDy=0;fontSize=14;endArrow=none;endFill=0;" parent="1" source="112" edge="1">
                    <mxGeometry relative="1" as="geometry">
                        <mxPoint x="959.8000000000002" y="340" as="targetPoint"/>
                    </mxGeometry>
                </mxCell>
                <mxCell id="233" style="edgeStyle=none;html=1;exitX=0.25;exitY=0;exitDx=0;exitDy=0;fontSize=18;entryX=0;entryY=1;entryDx=0;entryDy=0;" parent="1" source="112" target="234" edge="1">
                    <mxGeometry relative="1" as="geometry">
                        <mxPoint x="990" y="150" as="targetPoint"/>
                    </mxGeometry>
                </mxCell>
                <mxCell id="236" style="edgeStyle=none;html=1;exitX=0.75;exitY=0;exitDx=0;exitDy=0;entryX=0;entryY=1;entryDx=0;entryDy=0;fontSize=18;" parent="1" source="112" target="235" edge="1">
                    <mxGeometry relative="1" as="geometry"/>
                </mxCell>
                <mxCell id="237" style="edgeStyle=none;html=1;exitX=1;exitY=0.25;exitDx=0;exitDy=0;fontSize=18;entryX=0;entryY=1;entryDx=0;entryDy=0;" parent="1" source="112" target="238" edge="1">
                    <mxGeometry relative="1" as="geometry">
                        <mxPoint x="1089.9999999999995" y="180" as="targetPoint"/>
                    </mxGeometry>
                </mxCell>
                <mxCell id="112" value="&lt;font style=&quot;font-size: 18px&quot;&gt;Encargado&lt;/font&gt;" style="rounded=0;whiteSpace=wrap;html=1;" parent="1" vertex="1">
                    <mxGeometry x="900" y="200" width="120" height="60" as="geometry"/>
                </mxCell>
                <mxCell id="120" value="" style="endArrow=none;html=1;fontSize=18;exitX=1;exitY=0.5;exitDx=0;exitDy=0;" parent="1" source="7" edge="1">
                    <mxGeometry width="50" height="50" relative="1" as="geometry">
                        <mxPoint x="620" y="240" as="sourcePoint"/>
                        <mxPoint x="700" y="230" as="targetPoint"/>
                    </mxGeometry>
                </mxCell>
                <mxCell id="122" value="" style="endArrow=none;html=1;fontSize=18;entryX=0;entryY=0.5;entryDx=0;entryDy=0;" parent="1" target="112" edge="1">
                    <mxGeometry width="50" height="50" relative="1" as="geometry">
                        <mxPoint x="740" y="230" as="sourcePoint"/>
                        <mxPoint x="810" y="240" as="targetPoint"/>
                    </mxGeometry>
                </mxCell>
                <mxCell id="123" value="" style="endArrow=none;html=1;fontSize=18;" parent="1" edge="1">
                    <mxGeometry width="50" height="50" relative="1" as="geometry">
                        <mxPoint x="340" y="230" as="sourcePoint"/>
                        <mxPoint x="340" y="170" as="targetPoint"/>
                    </mxGeometry>
                </mxCell>
                <mxCell id="124" value="" style="endArrow=none;html=1;fontSize=18;" parent="1" edge="1">
                    <mxGeometry width="50" height="50" relative="1" as="geometry">
                        <mxPoint x="410" y="230" as="sourcePoint"/>
                        <mxPoint x="410" y="170" as="targetPoint"/>
                    </mxGeometry>
                </mxCell>
                <mxCell id="130" style="edgeStyle=none;html=1;exitX=0.25;exitY=0;exitDx=0;exitDy=0;entryX=0.73;entryY=1.001;entryDx=0;entryDy=0;entryPerimeter=0;" parent="1" source="125" target="132" edge="1">
                    <mxGeometry relative="1" as="geometry">
                        <mxPoint x="330" y="110" as="targetPoint"/>
                    </mxGeometry>
                </mxCell>
                <mxCell id="131" style="edgeStyle=none;html=1;exitX=0.5;exitY=0;exitDx=0;exitDy=0;entryX=0.5;entryY=1;entryDx=0;entryDy=0;" parent="1" source="125" target="133" edge="1">
                    <mxGeometry relative="1" as="geometry">
                        <mxPoint x="380" y="100" as="targetPoint"/>
                    </mxGeometry>
                </mxCell>
                <mxCell id="182" style="edgeStyle=none;rounded=1;html=1;exitX=0;exitY=0.25;exitDx=0;exitDy=0;fontSize=14;startArrow=none;startFill=0;endArrow=classicThin;endFill=1;entryX=1;entryY=1;entryDx=0;entryDy=0;" parent="1" source="125" target="183" edge="1">
                    <mxGeometry relative="1" as="geometry">
                        <mxPoint x="260" y="100" as="targetPoint"/>
                    </mxGeometry>
                </mxCell>
                <mxCell id="125" value="Usuario" style="shape=parallelogram;perimeter=parallelogramPerimeter;whiteSpace=wrap;html=1;fixedSize=1;" parent="1" vertex="1">
                    <mxGeometry x="330" y="140" width="100" height="50" as="geometry"/>
                </mxCell>
                <mxCell id="127" value="ID_Usuario" style="ellipse;whiteSpace=wrap;html=1;" parent="1" vertex="1">
                    <mxGeometry x="670" y="50" width="80" height="40" as="geometry"/>
                </mxCell>
                <mxCell id="129" value="ID" style="ellipse;whiteSpace=wrap;html=1;" parent="1" vertex="1">
                    <mxGeometry x="413" y="450" width="80" height="40" as="geometry"/>
                </mxCell>
                <mxCell id="132" value="Numero&lt;br&gt;Usuario" style="ellipse;whiteSpace=wrap;html=1;" parent="1" vertex="1">
                    <mxGeometry x="258.92" y="20" width="80" height="40" as="geometry"/>
                </mxCell>
                <mxCell id="133" value="ID_Cliente" style="ellipse;whiteSpace=wrap;html=1;" parent="1" vertex="1">
                    <mxGeometry x="360" y="20" width="80" height="40" as="geometry"/>
                </mxCell>
                <mxCell id="135" value="Numero&lt;br&gt;envio" style="ellipse;whiteSpace=wrap;html=1;" parent="1" vertex="1">
                    <mxGeometry x="600" y="10" width="80" height="40" as="geometry"/>
                </mxCell>
                <mxCell id="146" style="edgeStyle=none;html=1;exitX=0.5;exitY=1;exitDx=0;exitDy=0;fontSize=14;entryX=0.597;entryY=0.011;entryDx=0;entryDy=0;entryPerimeter=0;" parent="1" source="139" target="145" edge="1">
                    <mxGeometry relative="1" as="geometry">
                        <mxPoint x="680" y="330" as="targetPoint"/>
                    </mxGeometry>
                </mxCell>
                <mxCell id="148" style="edgeStyle=none;html=1;exitX=0.75;exitY=1;exitDx=0;exitDy=0;entryX=0;entryY=0.286;entryDx=0;entryDy=0;entryPerimeter=0;fontSize=14;" parent="1" source="139" target="147" edge="1">
                    <mxGeometry relative="1" as="geometry"/>
                </mxCell>
                <mxCell id="139" value="&lt;font style=&quot;font-size: 14px&quot;&gt;Pendientes&lt;/font&gt;" style="shape=parallelogram;perimeter=parallelogramPerimeter;whiteSpace=wrap;html=1;fixedSize=1;" parent="1" vertex="1">
                    <mxGeometry x="660" y="260" width="110" height="40" as="geometry"/>
                </mxCell>
                <mxCell id="141" value="" style="endArrow=none;html=1;" parent="1" edge="1">
                    <mxGeometry width="50" height="50" relative="1" as="geometry">
                        <mxPoint x="700" y="260" as="sourcePoint"/>
                        <mxPoint x="700" y="230" as="targetPoint"/>
                    </mxGeometry>
                </mxCell>
                <mxCell id="142" value="" style="endArrow=none;html=1;" parent="1" edge="1">
                    <mxGeometry width="50" height="50" relative="1" as="geometry">
                        <mxPoint x="740" y="260" as="sourcePoint"/>
                        <mxPoint x="740" y="230" as="targetPoint"/>
                    </mxGeometry>
                </mxCell>
                <mxCell id="145" value="ID_Datos&lt;br&gt;envio" style="ellipse;whiteSpace=wrap;html=1;" parent="1" vertex="1">
                    <mxGeometry x="633.04" y="340" width="80" height="40" as="geometry"/>
                </mxCell>
                <mxCell id="147" value="ID" style="ellipse;whiteSpace=wrap;html=1;" parent="1" vertex="1">
                    <mxGeometry x="747" y="330" width="80" height="40" as="geometry"/>
                </mxCell>
                <mxCell id="150" value="" style="shape=ext;double=1;whiteSpace=wrap;html=1;aspect=fixed;" parent="1" vertex="1">
                    <mxGeometry x="158.92" y="630" width="180" height="180" as="geometry"/>
                </mxCell>
                <mxCell id="152" value="&lt;font style=&quot;font-size: 14px&quot;&gt;Datos Envio&lt;/font&gt;" style="text;html=1;align=center;verticalAlign=middle;resizable=0;points=[];autosize=1;strokeColor=none;fillColor=none;" parent="1" vertex="1">
                    <mxGeometry x="205" y="640" width="90" height="20" as="geometry"/>
                </mxCell>
                <mxCell id="153" value="&lt;font style=&quot;font-size: 9px&quot;&gt;* Número paquete: VARCHAR(50)&lt;/font&gt;" style="text;html=1;align=center;verticalAlign=middle;resizable=0;points=[];autosize=1;strokeColor=none;fillColor=none;" parent="1" vertex="1">
                    <mxGeometry x="156.95999999999998" y="690" width="150" height="20" as="geometry"/>
                </mxCell>
                <mxCell id="154" value="&lt;font style=&quot;font-size: 10px&quot;&gt;* ID: INT(100)&lt;/font&gt;" style="text;html=1;align=center;verticalAlign=middle;resizable=0;points=[];autosize=1;strokeColor=none;fillColor=none;" parent="1" vertex="1">
                    <mxGeometry x="156.95999999999998" y="670" width="80" height="20" as="geometry"/>
                </mxCell>
                <mxCell id="155" value="&lt;span style=&quot;font-size: 9px&quot;&gt;* Número cliente: VARCHAR(50)&lt;/span&gt;" style="text;html=1;align=center;verticalAlign=middle;resizable=0;points=[];autosize=1;strokeColor=none;fillColor=none;fontSize=10;" parent="1" vertex="1">
                    <mxGeometry x="153.92" y="710" width="150" height="20" as="geometry"/>
                </mxCell>
                <mxCell id="156" value="* Día recibido:VARCHAR(10)" style="text;html=1;align=center;verticalAlign=middle;resizable=0;points=[];autosize=1;strokeColor=none;fillColor=none;fontSize=10;" parent="1" vertex="1">
                    <mxGeometry x="156.95999999999998" y="730" width="140" height="20" as="geometry"/>
                </mxCell>
                <mxCell id="157" value="* Destinatario INT(100)" style="text;html=1;align=center;verticalAlign=middle;resizable=0;points=[];autosize=1;strokeColor=none;fillColor=none;fontSize=10;" parent="1" vertex="1">
                    <mxGeometry x="153.92" y="750" width="120" height="20" as="geometry"/>
                </mxCell>
                <mxCell id="160" value="" style="endArrow=none;html=1;fontSize=14;entryX=0.006;entryY=0.169;entryDx=0;entryDy=0;entryPerimeter=0;" parent="1" target="150" edge="1">
                    <mxGeometry width="50" height="50" relative="1" as="geometry">
                        <mxPoint x="340" y="660" as="sourcePoint"/>
                        <mxPoint x="-6.079999999999984" y="570" as="targetPoint"/>
                    </mxGeometry>
                </mxCell>
                <mxCell id="169" style="edgeStyle=none;rounded=1;html=1;exitX=0.5;exitY=0;exitDx=0;exitDy=0;fontSize=14;endArrow=none;endFill=0;" parent="1" source="164" edge="1">
                    <mxGeometry relative="1" as="geometry">
                        <mxPoint x="959.8000000000002" y="380" as="targetPoint"/>
                    </mxGeometry>
                </mxCell>
                <mxCell id="241" style="edgeStyle=none;html=1;exitX=0.5;exitY=1;exitDx=0;exitDy=0;fontSize=18;entryX=0.267;entryY=-0.053;entryDx=0;entryDy=0;entryPerimeter=0;" parent="1" source="164" target="244" edge="1">
                    <mxGeometry relative="1" as="geometry">
                        <mxPoint x="1070" y="620" as="targetPoint"/>
                    </mxGeometry>
                </mxCell>
                <mxCell id="246" style="edgeStyle=none;html=1;exitX=0.75;exitY=1;exitDx=0;exitDy=0;entryX=0;entryY=0.5;entryDx=0;entryDy=0;fontSize=18;" parent="1" source="164" target="245" edge="1">
                    <mxGeometry relative="1" as="geometry"/>
                </mxCell>
                <mxCell id="248" style="edgeStyle=none;html=1;exitX=0.25;exitY=1;exitDx=0;exitDy=0;fontSize=18;entryX=0.387;entryY=-0.027;entryDx=0;entryDy=0;entryPerimeter=0;" parent="1" source="164" target="249" edge="1">
                    <mxGeometry relative="1" as="geometry">
                        <mxPoint x="979.9999999999995" y="650" as="targetPoint"/>
                    </mxGeometry>
                </mxCell>
                <mxCell id="258" style="edgeStyle=none;html=1;exitX=1;exitY=0.5;exitDx=0;exitDy=0;" edge="1" parent="1" source="164">
                    <mxGeometry relative="1" as="geometry">
                        <mxPoint x="1090" y="490.3333333333335" as="targetPoint"/>
                    </mxGeometry>
                </mxCell>
                <mxCell id="164" value="&lt;font style=&quot;font-size: 18px&quot;&gt;Repartidor&lt;/font&gt;" style="rounded=0;whiteSpace=wrap;html=1;" parent="1" vertex="1">
                    <mxGeometry x="900" y="460" width="120" height="60" as="geometry"/>
                </mxCell>
                <mxCell id="170" style="edgeStyle=none;rounded=1;html=1;exitX=0.75;exitY=0;exitDx=0;exitDy=0;fontSize=14;endArrow=classic;endFill=1;" parent="1" source="165" edge="1">
                    <mxGeometry relative="1" as="geometry">
                        <mxPoint x="1160" y="310" as="targetPoint"/>
                    </mxGeometry>
                </mxCell>
                <mxCell id="172" style="edgeStyle=none;rounded=1;html=1;exitX=1;exitY=0.75;exitDx=0;exitDy=0;fontSize=14;endArrow=classic;endFill=1;" parent="1" source="165" edge="1">
                    <mxGeometry relative="1" as="geometry">
                        <mxPoint x="1210" y="367.4000000000001" as="targetPoint"/>
                    </mxGeometry>
                </mxCell>
                <mxCell id="165" value="&lt;span style=&quot;font-size: 14px&quot;&gt;Enviados&lt;/span&gt;" style="shape=parallelogram;perimeter=parallelogramPerimeter;whiteSpace=wrap;html=1;fixedSize=1;" parent="1" vertex="1">
                    <mxGeometry x="1020" y="340" width="110" height="40" as="geometry"/>
                </mxCell>
                <mxCell id="166" value="" style="endArrow=none;html=1;rounded=1;fontSize=14;" parent="1" edge="1">
                    <mxGeometry width="50" height="50" relative="1" as="geometry">
                        <mxPoint x="1050" y="340" as="sourcePoint"/>
                        <mxPoint x="960" y="340" as="targetPoint"/>
                    </mxGeometry>
                </mxCell>
                <mxCell id="167" value="" style="endArrow=none;html=1;rounded=1;fontSize=14;exitX=0;exitY=1;exitDx=0;exitDy=0;" parent="1" source="165" edge="1">
                    <mxGeometry width="50" height="50" relative="1" as="geometry">
                        <mxPoint x="900" y="440" as="sourcePoint"/>
                        <mxPoint x="960" y="380" as="targetPoint"/>
                    </mxGeometry>
                </mxCell>
                <mxCell id="175" value="ID" style="ellipse;whiteSpace=wrap;html=1;" parent="1" vertex="1">
                    <mxGeometry x="1150" y="280" width="80" height="40" as="geometry"/>
                </mxCell>
                <mxCell id="176" value="ID_Datos&lt;br&gt;envio" style="ellipse;whiteSpace=wrap;html=1;" parent="1" vertex="1">
                    <mxGeometry x="1210" y="350" width="80" height="40" as="geometry"/>
                </mxCell>
                <mxCell id="183" value="ID" style="ellipse;whiteSpace=wrap;html=1;" parent="1" vertex="1">
                    <mxGeometry x="180" y="60" width="80" height="40" as="geometry"/>
                </mxCell>
                <mxCell id="185" value="ID" style="ellipse;whiteSpace=wrap;html=1;" parent="1" vertex="1">
                    <mxGeometry x="700" y="120" width="80" height="40" as="geometry"/>
                </mxCell>
                <mxCell id="186" value="" style="shape=ext;double=1;whiteSpace=wrap;html=1;aspect=fixed;" parent="1" vertex="1">
                    <mxGeometry x="161.95999999999998" y="890" width="180" height="180" as="geometry"/>
                </mxCell>
                <mxCell id="187" value="&lt;font style=&quot;font-size: 14px&quot;&gt;Usuario&lt;/font&gt;" style="text;html=1;align=center;verticalAlign=middle;resizable=0;points=[];autosize=1;strokeColor=none;fillColor=none;" parent="1" vertex="1">
                    <mxGeometry x="223.04" y="900" width="60" height="20" as="geometry"/>
                </mxCell>
                <mxCell id="188" value="&lt;font style=&quot;font-size: 9px&quot;&gt;* Número Usuario VARCHAR(50)&lt;/font&gt;" style="text;html=1;align=center;verticalAlign=middle;resizable=0;points=[];autosize=1;strokeColor=none;fillColor=none;" parent="1" vertex="1">
                    <mxGeometry x="156.95999999999998" y="950" width="150" height="20" as="geometry"/>
                </mxCell>
                <mxCell id="189" value="&lt;font style=&quot;font-size: 10px&quot;&gt;* ID: INT(100)&lt;/font&gt;" style="text;html=1;align=center;verticalAlign=middle;resizable=0;points=[];autosize=1;strokeColor=none;fillColor=none;" parent="1" vertex="1">
                    <mxGeometry x="158.91999999999996" y="930" width="80" height="20" as="geometry"/>
                </mxCell>
                <mxCell id="190" value="&lt;span style=&quot;font-size: 9px&quot;&gt;* ID_ cliente: VARCHAR(50)&lt;/span&gt;" style="text;html=1;align=center;verticalAlign=middle;resizable=0;points=[];autosize=1;strokeColor=none;fillColor=none;fontSize=10;" parent="1" vertex="1">
                    <mxGeometry x="158.92" y="970" width="130" height="20" as="geometry"/>
                </mxCell>
                <mxCell id="193" value="" style="endArrow=none;html=1;fontSize=14;exitX=1.004;exitY=0.165;exitDx=0;exitDy=0;exitPerimeter=0;" parent="1" source="186" edge="1">
                    <mxGeometry width="50" height="50" relative="1" as="geometry">
                        <mxPoint x="-53.039999999999985" y="880" as="sourcePoint"/>
                        <mxPoint x="160" y="920" as="targetPoint"/>
                    </mxGeometry>
                </mxCell>
                <mxCell id="198" value="" style="shape=ext;double=1;whiteSpace=wrap;html=1;aspect=fixed;" parent="1" vertex="1">
                    <mxGeometry x="-115" y="900" width="180" height="180" as="geometry"/>
                </mxCell>
                <mxCell id="199" value="&lt;span style=&quot;font-size: medium&quot;&gt;Recepcionista&lt;/span&gt;" style="text;html=1;align=center;verticalAlign=middle;resizable=0;points=[];autosize=1;strokeColor=none;fillColor=none;" parent="1" vertex="1">
                    <mxGeometry x="-83.91999999999999" y="910" width="120" height="20" as="geometry"/>
                </mxCell>
                <mxCell id="200" value="&lt;font style=&quot;font-size: 9px&quot;&gt;* Nombre:VARCHAR(50)&lt;/font&gt;" style="text;html=1;align=center;verticalAlign=middle;resizable=0;points=[];autosize=1;strokeColor=none;fillColor=none;" parent="1" vertex="1">
                    <mxGeometry x="-120" y="960" width="120" height="20" as="geometry"/>
                </mxCell>
                <mxCell id="201" value="&lt;font style=&quot;font-size: 10px&quot;&gt;* ID: INT(10)&lt;/font&gt;" style="text;html=1;align=center;verticalAlign=middle;resizable=0;points=[];autosize=1;strokeColor=none;fillColor=none;" parent="1" vertex="1">
                    <mxGeometry x="-116.96000000000001" y="940" width="70" height="20" as="geometry"/>
                </mxCell>
                <mxCell id="202" value="&lt;span style=&quot;font-size: 9px&quot;&gt;* ID_ envio :VARCHAR(50)&lt;/span&gt;" style="text;html=1;align=center;verticalAlign=middle;resizable=0;points=[];autosize=1;strokeColor=none;fillColor=none;fontSize=10;" parent="1" vertex="1">
                    <mxGeometry x="-114.99999999999999" y="980" width="120" height="20" as="geometry"/>
                </mxCell>
                <mxCell id="203" value="" style="endArrow=none;html=1;fontSize=14;entryX=0.006;entryY=0.169;entryDx=0;entryDy=0;entryPerimeter=0;exitX=1.004;exitY=0.161;exitDx=0;exitDy=0;exitPerimeter=0;" parent="1" source="198" target="198" edge="1">
                    <mxGeometry width="50" height="50" relative="1" as="geometry">
                        <mxPoint x="60" y="930" as="sourcePoint"/>
                        <mxPoint x="-279.99999999999994" y="840" as="targetPoint"/>
                    </mxGeometry>
                </mxCell>
                <mxCell id="205" value="&lt;span style=&quot;font-size: 9px&quot;&gt;* Mail: VARCHAR(50)&lt;/span&gt;" style="text;html=1;align=center;verticalAlign=middle;resizable=0;points=[];autosize=1;strokeColor=none;fillColor=none;fontSize=14;" parent="1" vertex="1">
                    <mxGeometry x="-135" y="770" width="100" height="20" as="geometry"/>
                </mxCell>
                <mxCell id="206" value="&lt;span style=&quot;color: rgb(240 , 240 , 240) ; font-family: &amp;#34;helvetica&amp;#34; ; font-style: normal ; font-weight: 400 ; letter-spacing: normal ; text-align: center ; text-indent: 0px ; text-transform: none ; word-spacing: 0px ; background-color: rgb(42 , 42 , 42) ; display: inline ; float: none&quot;&gt;&lt;font style=&quot;font-size: 9px&quot;&gt;* Numero envio:&lt;/font&gt;&lt;font style=&quot;font-size: 9px&quot;&gt;&amp;nbsp;&lt;/font&gt;&lt;font style=&quot;font-size: 9px&quot;&gt;INT(100)&lt;/font&gt;&lt;/span&gt;" style="text;whiteSpace=wrap;html=1;fontSize=14;" parent="1" vertex="1">
                    <mxGeometry x="-110" y="1000" width="120" height="30" as="geometry"/>
                </mxCell>
                <mxCell id="207" value="&lt;span style=&quot;color: rgb(240 , 240 , 240) ; font-family: &amp;#34;helvetica&amp;#34; ; font-style: normal ; font-weight: 400 ; letter-spacing: normal ; text-align: center ; text-indent: 0px ; text-transform: none ; word-spacing: 0px ; background-color: rgb(42 , 42 , 42) ; display: inline ; float: none&quot;&gt;&lt;font style=&quot;font-size: 10px&quot;&gt;* ID_usuario: INT(100)&lt;/font&gt;&lt;/span&gt;" style="text;whiteSpace=wrap;html=1;fontSize=14;" parent="1" vertex="1">
                    <mxGeometry x="-110.00000000000001" y="1020" width="130" height="30" as="geometry"/>
                </mxCell>
                <mxCell id="209" value="" style="shape=ext;double=1;whiteSpace=wrap;html=1;aspect=fixed;" parent="1" vertex="1">
                    <mxGeometry x="385" y="890" width="180" height="180" as="geometry"/>
                </mxCell>
                <mxCell id="210" value="&lt;span style=&quot;font-size: 14px&quot;&gt;Pendientes&lt;/span&gt;" style="text;html=1;align=center;verticalAlign=middle;resizable=0;points=[];autosize=1;strokeColor=none;fillColor=none;" parent="1" vertex="1">
                    <mxGeometry x="431.08" y="900" width="90" height="20" as="geometry"/>
                </mxCell>
                <mxCell id="211" value="&lt;font style=&quot;font-size: 9px&quot;&gt;* ID_Datos envioVARCHAR(50)&lt;/font&gt;" style="text;html=1;align=center;verticalAlign=middle;resizable=0;points=[];autosize=1;strokeColor=none;fillColor=none;" parent="1" vertex="1">
                    <mxGeometry x="383.04" y="950" width="140" height="20" as="geometry"/>
                </mxCell>
                <mxCell id="212" value="&lt;font style=&quot;font-size: 10px&quot;&gt;* ID: INT(10)&lt;/font&gt;" style="text;html=1;align=center;verticalAlign=middle;resizable=0;points=[];autosize=1;strokeColor=none;fillColor=none;" parent="1" vertex="1">
                    <mxGeometry x="383.03999999999996" y="930" width="70" height="20" as="geometry"/>
                </mxCell>
                <mxCell id="213" value="&lt;span style=&quot;font-size: 9px&quot;&gt;*&amp;nbsp; Numero Envio: VARCHAR(50)&lt;/span&gt;" style="text;html=1;align=center;verticalAlign=middle;resizable=0;points=[];autosize=1;strokeColor=none;fillColor=none;fontSize=10;" parent="1" vertex="1">
                    <mxGeometry x="379.99999999999994" y="970" width="150" height="20" as="geometry"/>
                </mxCell>
                <mxCell id="214" value="" style="endArrow=none;html=1;fontSize=14;exitX=1.004;exitY=0.165;exitDx=0;exitDy=0;exitPerimeter=0;" parent="1" source="209" edge="1">
                    <mxGeometry width="50" height="50" relative="1" as="geometry">
                        <mxPoint x="170" y="880" as="sourcePoint"/>
                        <mxPoint x="383.03999999999974" y="920" as="targetPoint"/>
                    </mxGeometry>
                </mxCell>
                <mxCell id="215" value="" style="shape=ext;double=1;whiteSpace=wrap;html=1;aspect=fixed;" parent="1" vertex="1">
                    <mxGeometry x="684.28" y="890" width="180" height="180" as="geometry"/>
                </mxCell>
                <mxCell id="216" value="&lt;span style=&quot;font-size: 14px&quot;&gt;Encargado&lt;/span&gt;" style="text;html=1;align=center;verticalAlign=middle;resizable=0;points=[];autosize=1;strokeColor=none;fillColor=none;" parent="1" vertex="1">
                    <mxGeometry x="735.3599999999999" y="900" width="80" height="20" as="geometry"/>
                </mxCell>
                <mxCell id="217" value="&lt;font style=&quot;font-size: 9px&quot;&gt;* ID_Datos envioVARCHAR(50)&lt;/font&gt;" style="text;html=1;align=center;verticalAlign=middle;resizable=0;points=[];autosize=1;strokeColor=none;fillColor=none;" parent="1" vertex="1">
                    <mxGeometry x="682.3199999999999" y="950" width="140" height="20" as="geometry"/>
                </mxCell>
                <mxCell id="218" value="&lt;font style=&quot;font-size: 10px&quot;&gt;* ID: INT(10)&lt;/font&gt;" style="text;html=1;align=center;verticalAlign=middle;resizable=0;points=[];autosize=1;strokeColor=none;fillColor=none;" parent="1" vertex="1">
                    <mxGeometry x="682.3199999999999" y="930" width="70" height="20" as="geometry"/>
                </mxCell>
                <mxCell id="219" value="&lt;span style=&quot;font-size: 9px&quot;&gt;*&amp;nbsp; Numero Envio: VARCHAR(50)&lt;/span&gt;" style="text;html=1;align=center;verticalAlign=middle;resizable=0;points=[];autosize=1;strokeColor=none;fillColor=none;fontSize=10;" parent="1" vertex="1">
                    <mxGeometry x="679.28" y="970" width="150" height="20" as="geometry"/>
                </mxCell>
                <mxCell id="220" value="" style="endArrow=none;html=1;fontSize=14;exitX=1.004;exitY=0.165;exitDx=0;exitDy=0;exitPerimeter=0;" parent="1" source="215" edge="1">
                    <mxGeometry width="50" height="50" relative="1" as="geometry">
                        <mxPoint x="469.28" y="880" as="sourcePoint"/>
                        <mxPoint x="682.3199999999999" y="920" as="targetPoint"/>
                    </mxGeometry>
                </mxCell>
                <mxCell id="221" value="" style="shape=ext;double=1;whiteSpace=wrap;html=1;aspect=fixed;" parent="1" vertex="1">
                    <mxGeometry x="418" y="630" width="180" height="180" as="geometry"/>
                </mxCell>
                <mxCell id="222" value="&lt;span style=&quot;font-size: 14px&quot;&gt;Enviados&lt;/span&gt;" style="text;html=1;align=center;verticalAlign=middle;resizable=0;points=[];autosize=1;strokeColor=none;fillColor=none;" parent="1" vertex="1">
                    <mxGeometry x="474.0799999999999" y="640" width="70" height="20" as="geometry"/>
                </mxCell>
                <mxCell id="223" value="&lt;font style=&quot;font-size: 9px&quot;&gt;* ID_Datos-envioVARCHAR(50)&lt;/font&gt;" style="text;html=1;align=center;verticalAlign=middle;resizable=0;points=[];autosize=1;strokeColor=none;fillColor=none;" parent="1" vertex="1">
                    <mxGeometry x="416.03999999999996" y="690" width="140" height="20" as="geometry"/>
                </mxCell>
                <mxCell id="224" value="&lt;font style=&quot;font-size: 10px&quot;&gt;* ID: INT(100)&lt;/font&gt;" style="text;html=1;align=center;verticalAlign=middle;resizable=0;points=[];autosize=1;strokeColor=none;fillColor=none;" parent="1" vertex="1">
                    <mxGeometry x="412.99999999999994" y="670" width="80" height="20" as="geometry"/>
                </mxCell>
                <mxCell id="225" value="&lt;span style=&quot;font-size: 9px&quot;&gt;* Numero Envio: VARCHAR(50)&lt;/span&gt;" style="text;html=1;align=center;verticalAlign=middle;resizable=0;points=[];autosize=1;strokeColor=none;fillColor=none;fontSize=10;" parent="1" vertex="1">
                    <mxGeometry x="418" y="710" width="140" height="20" as="geometry"/>
                </mxCell>
                <mxCell id="226" value="" style="endArrow=none;html=1;fontSize=14;exitX=1.004;exitY=0.165;exitDx=0;exitDy=0;exitPerimeter=0;" parent="1" source="221" edge="1">
                    <mxGeometry width="50" height="50" relative="1" as="geometry">
                        <mxPoint x="203" y="620" as="sourcePoint"/>
                        <mxPoint x="416.03999999999996" y="660" as="targetPoint"/>
                    </mxGeometry>
                </mxCell>
                <mxCell id="227" value="" style="shape=ext;double=1;whiteSpace=wrap;html=1;aspect=fixed;" parent="1" vertex="1">
                    <mxGeometry x="685" y="630" width="180" height="180" as="geometry"/>
                </mxCell>
                <mxCell id="228" value="&lt;span style=&quot;font-size: 14px&quot;&gt;Repartidor&lt;/span&gt;" style="text;html=1;align=center;verticalAlign=middle;resizable=0;points=[];autosize=1;strokeColor=none;fillColor=none;" parent="1" vertex="1">
                    <mxGeometry x="736.0799999999999" y="640" width="80" height="20" as="geometry"/>
                </mxCell>
                <mxCell id="229" value="&lt;font style=&quot;font-size: 9px&quot;&gt;* ID_Datos-envio: VARCHAR(50)&lt;/font&gt;" style="text;html=1;align=center;verticalAlign=middle;resizable=0;points=[];autosize=1;strokeColor=none;fillColor=none;" parent="1" vertex="1">
                    <mxGeometry x="683.04" y="750" width="150" height="20" as="geometry"/>
                </mxCell>
                <mxCell id="230" value="&lt;font style=&quot;font-size: 10px&quot;&gt;* ID: INT(10)&lt;/font&gt;" style="text;html=1;align=center;verticalAlign=middle;resizable=0;points=[];autosize=1;strokeColor=none;fillColor=none;" parent="1" vertex="1">
                    <mxGeometry x="683.04" y="670" width="70" height="20" as="geometry"/>
                </mxCell>
                <mxCell id="231" value="&lt;span style=&quot;font-size: 9px&quot;&gt;* ID_Enviados: VARCHAR(50)&lt;/span&gt;" style="text;html=1;align=center;verticalAlign=middle;resizable=0;points=[];autosize=1;strokeColor=none;fillColor=none;fontSize=10;" parent="1" vertex="1">
                    <mxGeometry x="680" y="710" width="140" height="20" as="geometry"/>
                </mxCell>
                <mxCell id="232" value="" style="endArrow=none;html=1;fontSize=14;exitX=1.004;exitY=0.165;exitDx=0;exitDy=0;exitPerimeter=0;" parent="1" source="227" edge="1">
                    <mxGeometry width="50" height="50" relative="1" as="geometry">
                        <mxPoint x="470" y="620" as="sourcePoint"/>
                        <mxPoint x="683.0400000000002" y="660" as="targetPoint"/>
                    </mxGeometry>
                </mxCell>
                <mxCell id="234" value="ID" style="ellipse;whiteSpace=wrap;html=1;" parent="1" vertex="1">
                    <mxGeometry x="890" y="80" width="80" height="40" as="geometry"/>
                </mxCell>
                <mxCell id="235" value="Nombre" style="ellipse;whiteSpace=wrap;html=1;" parent="1" vertex="1">
                    <mxGeometry x="1000" y="90" width="80" height="40" as="geometry"/>
                </mxCell>
                <mxCell id="238" value="ID_Pendientes" style="ellipse;whiteSpace=wrap;html=1;" parent="1" vertex="1">
                    <mxGeometry x="1100" y="120" width="90" height="50" as="geometry"/>
                </mxCell>
                <mxCell id="244" value="Nombre" style="ellipse;whiteSpace=wrap;html=1;" parent="1" vertex="1">
                    <mxGeometry x="1050" y="630" width="80" height="40" as="geometry"/>
                </mxCell>
                <mxCell id="245" value="ID" style="ellipse;whiteSpace=wrap;html=1;" parent="1" vertex="1">
                    <mxGeometry x="1120" y="565" width="80" height="40" as="geometry"/>
                </mxCell>
                <mxCell id="249" value="Entregado" style="ellipse;whiteSpace=wrap;html=1;" parent="1" vertex="1">
                    <mxGeometry x="950" y="660" width="80" height="40" as="geometry"/>
                </mxCell>
                <mxCell id="251" value="&lt;span style=&quot;font-size: 9px&quot;&gt;*&amp;nbsp; Entregado: VARCHAR(50)&lt;/span&gt;" style="text;html=1;align=center;verticalAlign=middle;resizable=0;points=[];autosize=1;strokeColor=none;fillColor=none;fontSize=10;" vertex="1" parent="1">
                    <mxGeometry x="683.04" y="730" width="130" height="20" as="geometry"/>
                </mxCell>
                <mxCell id="252" value="&lt;span style=&quot;font-size: 9px&quot;&gt;*&amp;nbsp; Nombre: VARCHAR(50)&lt;/span&gt;" style="text;html=1;align=center;verticalAlign=middle;resizable=0;points=[];autosize=1;strokeColor=none;fillColor=none;fontSize=10;" vertex="1" parent="1">
                    <mxGeometry x="683.04" y="690" width="120" height="20" as="geometry"/>
                </mxCell>
                <mxCell id="255" value="Numero envio" style="ellipse;whiteSpace=wrap;html=1;" vertex="1" parent="1">
                    <mxGeometry x="303.92" y="450" width="90" height="40" as="geometry"/>
                </mxCell>
                <mxCell id="259" value="ID_Enviados" style="ellipse;whiteSpace=wrap;html=1;" vertex="1" parent="1">
                    <mxGeometry x="1090" y="470" width="90" height="40" as="geometry"/>
                </mxCell>
            </root>
        </mxGraphModel>
    </diagram>
</mxfile>